<svg width="78" height="73" viewBox="0 0 78 73" fill="none" xmlns="http://www.w3.org/2000/svg">
<path d="M51.9885 70.97C54.2185 70.97 56.3385 70.01 57.8085 68.34C72.6585 51.4 78.1985 33.12 73.3985 16.89C73.1585 16.09 72.8985 15.28 72.6085 14.48C69.9585 7.13 61.9685 1.99 53.1685 1.99C51.0585 1.99 49.0085 2.29 47.0985 2.89C42.2085 4.41 38.0485 7.65 35.3685 12C34.3685 13.62 32.6485 14.59 30.7585 14.59C30.2385 14.59 29.7085 14.51 29.2085 14.36C27.2485 13.77 25.2085 13.47 23.1685 13.47C21.1285 13.47 18.9285 13.79 16.8885 14.43C8.66851 16.99 2.71851 24.47 2.0685 33.04C1.2685 43.62 10.0285 52.64 15.3185 57.07C25.6085 65.69 38.5585 70.62 51.7985 70.96H51.9985L51.9885 70.97Z" fill="#FF6565"/>
<path d="M53.1685 3.99C51.2985 3.99 49.4385 4.25 47.6885 4.8C43.0885 6.23 39.4085 9.24 37.0685 13.05C35.6885 15.29 33.2785 16.59 30.7585 16.59C30.0485 16.59 29.3385 16.49 28.6285 16.28C26.8685 15.75 25.0385 15.48 23.1585 15.48C21.2785 15.48 19.3585 15.76 17.4685 16.35C10.0385 18.66 4.6385 25.45 4.0485 33.21C3.3785 42.07 10.1485 50.16 16.5885 55.56C26.4085 63.79 39.0185 68.66 51.8285 68.98C51.8785 68.98 51.9285 68.98 51.9685 68.98C53.6185 68.98 55.1885 68.27 56.2785 67.03C68.2485 53.36 76.8185 35.64 71.4585 17.46C71.2285 16.69 70.9785 15.93 70.7085 15.16C68.1485 8.06 60.5185 4 53.1585 4M53.1585 0C62.7785 0 71.5485 5.68 74.4785 13.81C74.7785 14.64 75.0585 15.49 75.3085 16.33C80.2985 33.25 74.6185 52.19 59.2985 69.66C57.4485 71.77 54.7885 72.97 51.9785 72.97C51.8985 72.97 51.8185 72.97 51.7285 72.97C38.0485 72.63 24.6585 67.53 14.0185 58.62C7.1985 52.9 -0.761497 43.8 0.0585022 32.91C0.768501 23.52 7.2785 15.33 16.2785 12.54C18.5185 11.84 20.8285 11.49 23.1585 11.49C25.4885 11.49 27.6185 11.82 29.7685 12.46C30.0885 12.56 30.4185 12.6 30.7485 12.6C31.9385 12.6 33.0285 11.99 33.6585 10.96C36.5885 6.19 41.1485 2.65 46.4985 0.99C48.6085 0.33 50.8485 0 53.1585 0Z" fill="#1C1C36"/>
<path d="M43.8485 12.52C43.3585 11.7 43.6285 10.64 44.4385 10.15C45.2585 9.66 46.3185 9.93 46.8085 10.74C47.2985 11.56 47.0285 12.62 46.2185 13.11C45.3985 13.6 44.3385 13.33 43.8485 12.52Z" fill="#1C1C36"/>
<path d="M43.2085 13.67C43.5285 14.21 43.3585 14.91 42.8185 15.23C42.2785 15.55 41.5785 15.38 41.2585 14.84C40.9385 14.3 41.1085 13.6 41.6485 13.28C42.1885 12.96 42.8885 13.13 43.2085 13.67Z" fill="#1C1C36"/>
<path d="M37.4185 21.51C36.4585 14.29 26.8285 11.22 20.9385 14.5C26.6485 16.82 31.9785 18.45 37.4185 21.51Z" fill="#1C1C36"/>
<path d="M8.1185 28.42C7.7485 29.41 7.44851 30.41 7.34851 31.47C7.2885 32.1 7.3185 32.65 7.6785 33.2C7.9785 33.65 8.5485 34.07 9.0885 34.16C9.6785 34.26 10.3285 34.19 10.8185 33.83C11.2685 33.5 11.7185 32.99 11.7785 32.42C11.8485 31.72 11.9985 31.03 12.2085 30.36C12.4685 29.69 12.7885 29.05 13.1785 28.44C13.6185 27.83 14.1085 27.28 14.6585 26.77C15.2185 26.31 15.8185 25.92 16.4485 25.58C16.6385 25.5 16.8285 25.42 17.0185 25.35C17.5785 25.14 18.0585 24.76 18.3285 24.22C18.5785 23.72 18.6585 23.02 18.4585 22.49C18.2485 21.94 17.8785 21.42 17.3285 21.18C16.7885 20.94 16.1685 20.84 15.5985 21.05C12.2285 22.3 9.3685 25.04 8.1085 28.43L8.1185 28.42Z" fill="white"/>
<path d="M12.5485 37.74C13.0285 39.2 12.4185 40.72 11.1785 41.13C9.93849 41.54 8.54849 40.68 8.05849 39.22C7.57849 37.76 8.18849 36.24 9.42849 35.83C10.6685 35.42 12.0585 36.28 12.5485 37.74Z" fill="white"/>
<path d="M71.5085 17.25C76.7885 35.14 68.3585 52.59 56.5685 66.04C55.5185 67.24 53.9985 67.93 52.4085 67.96C53.6685 67.75 54.8385 67.11 55.6885 66.13C67.4785 52.68 75.9085 35.23 70.6285 17.34C70.4085 16.59 70.1585 15.84 69.8885 15.08C67.2185 7.67 58.9185 3.61 51.2885 4.14C59.1485 3.23 67.9885 7.3 70.7585 15C71.0285 15.76 71.2785 16.51 71.4985 17.26L71.5085 17.25Z" fill="white"/>
</svg>
