<svg width="146" height="91" viewBox="0 0 146 91" fill="none" xmlns="http://www.w3.org/2000/svg">
<path d="M31.33 8.8L2 2L20.59 32.36C20.59 32.36 11.59 17.2 31.33 8.8Z" fill="#FFAD84" stroke="#1C1C36" stroke-width="4" stroke-linecap="round" stroke-linejoin="round"/>
<path d="M43.71 30.01C36.22 26.01 28.93 21.65 21.86 16.95" stroke="#1C1C36" stroke-width="4" stroke-linecap="round" stroke-linejoin="round"/>
<path d="M59.24 74.44C57.01 74.44 54.89 73.48 53.42 71.81C38.57 54.87 33.03 36.59 37.83 20.36C38.07 19.56 38.33 18.75 38.62 17.95C41.27 10.6 49.26 5.46 58.06 5.46C60.17 5.46 62.22 5.76 64.13 6.36C69.02 7.88 73.18 11.12 75.86 15.47C76.86 17.09 78.58 18.06 80.47 18.06C80.99 18.06 81.52 17.98 82.02 17.83C83.98 17.24 86.02 16.94 88.06 16.94C90.1 16.94 92.3 17.26 94.34 17.9C102.56 20.46 108.51 27.94 109.16 36.51C109.96 47.09 101.2 56.11 95.91 60.54C85.62 69.16 72.67 74.09 59.43 74.43H59.23L59.24 74.44Z" fill="#FF6565"/>
<path d="M58.06 7.46C59.93 7.46 61.79 7.72 63.54 8.27C68.14 9.7 71.82 12.71 74.16 16.52C75.54 18.76 77.95 20.06 80.47 20.06C81.18 20.06 81.89 19.96 82.6 19.75C84.36 19.22 86.19 18.95 88.07 18.95C89.95 18.95 91.87 19.23 93.76 19.82C101.19 22.13 106.59 28.92 107.18 36.68C107.85 45.54 101.08 53.63 94.64 59.03C84.82 67.26 72.21 72.13 59.4 72.45C59.35 72.45 59.3 72.45 59.26 72.45C57.61 72.45 56.04 71.74 54.95 70.5C42.98 56.83 34.41 39.11 39.77 20.93C40 20.16 40.25 19.4 40.52 18.63C43.08 11.53 50.71 7.47 58.07 7.47M58.07 3.47C48.45 3.47 39.68 9.15 36.75 17.28C36.45 18.11 36.17 18.96 35.92 19.8C30.93 36.72 36.61 55.66 51.93 73.13C53.78 75.24 56.44 76.44 59.25 76.44C59.33 76.44 59.41 76.44 59.5 76.44C73.18 76.1 86.57 71 97.21 62.09C104.03 56.37 111.99 47.27 111.17 36.38C110.46 26.99 103.95 18.8 94.95 16.01C92.71 15.31 90.4 14.96 88.07 14.96C85.74 14.96 83.61 15.29 81.46 15.93C81.14 16.03 80.81 16.07 80.48 16.07C79.29 16.07 78.2 15.46 77.57 14.43C74.64 9.66 70.08 6.12 64.73 4.46C62.62 3.8 60.38 3.47 58.07 3.47Z" fill="#1C1C36"/>
<path d="M67.38 15.99C67.87 15.17 67.6 14.11 66.79 13.62C65.97 13.13 64.91 13.4 64.42 14.21C63.93 15.03 64.2 16.09 65.01 16.58C65.83 17.07 66.89 16.8 67.38 15.99Z" fill="#1C1C36"/>
<path d="M68.02 17.14C67.7 17.68 67.87 18.38 68.41 18.7C68.95 19.02 69.65 18.85 69.97 18.31C70.29 17.77 70.12 17.07 69.58 16.75C69.04 16.43 68.34 16.6 68.02 17.14Z" fill="#1C1C36"/>
<path d="M73.81 24.98C74.77 17.76 84.4 14.69 90.29 17.97C84.58 20.29 79.25 21.92 73.81 24.98Z" fill="#1C1C36"/>
<path d="M103.11 31.89C103.48 32.88 103.78 33.88 103.88 34.94C103.94 35.57 103.91 36.12 103.55 36.67C103.25 37.12 102.68 37.54 102.14 37.63C101.55 37.73 100.9 37.66 100.41 37.3C99.96 36.97 99.51 36.46 99.45 35.89C99.38 35.19 99.23 34.5 99.02 33.83C98.76 33.16 98.44 32.52 98.05 31.91C97.61 31.3 97.12 30.75 96.57 30.24C96.01 29.78 95.41 29.39 94.78 29.05C94.59 28.97 94.4 28.89 94.21 28.82C93.65 28.61 93.17 28.23 92.9 27.69C92.65 27.19 92.57 26.49 92.77 25.96C92.98 25.41 93.35 24.89 93.9 24.65C94.44 24.41 95.06 24.31 95.63 24.52C99 25.77 101.86 28.51 103.12 31.9L103.11 31.89Z" fill="white"/>
<path d="M98.68 41.21C98.2 42.67 98.81 44.19 100.05 44.6C101.29 45.01 102.68 44.15 103.17 42.69C103.65 41.23 103.04 39.71 101.8 39.3C100.56 38.89 99.17 39.75 98.68 41.21Z" fill="white"/>
<path d="M39.72 20.72C34.44 38.61 42.87 56.06 54.66 69.51C55.71 70.71 57.23 71.4 58.82 71.43C57.56 71.22 56.39 70.58 55.54 69.6C43.75 56.15 35.32 38.7 40.6 20.81C40.82 20.06 41.07 19.31 41.34 18.55C44.01 11.14 52.31 7.08 59.94 7.61C52.08 6.7 43.24 10.77 40.47 18.47C40.2 19.23 39.95 19.98 39.73 20.73L39.72 20.72Z" fill="white"/>
<path d="M76.51 50.48L109.98 64.23" stroke="#1C1C36" stroke-width="4" stroke-linecap="round" stroke-linejoin="round"/>
<path d="M131.85 88.57C131.56 88.57 131.26 88.51 130.98 88.37C123.42 84.74 107.04 76.63 106.88 76.55C106.29 76.26 105.88 75.7 105.79 75.05L103.89 62.05C103.75 61.06 104.36 60.11 105.33 59.84L118.13 56.24C118.31 56.19 118.49 56.17 118.67 56.17C118.95 56.17 119.22 56.23 119.48 56.34C120.23 56.67 137.82 64.42 142.26 66.54C142.97 66.88 143.42 67.61 143.4 68.4C143.38 69.19 142.89 69.89 142.16 70.19L130.27 75.07L133.76 85.96C134 86.72 133.77 87.55 133.17 88.08C132.8 88.4 132.33 88.57 131.86 88.57H131.85Z" fill="#FFAD84"/>
<path d="M118.67 58.16C118.67 58.16 136.93 66.2 141.4 68.34L127.8 73.93C129.15 78.15 130.5 82.36 131.85 86.58C124.21 82.91 107.77 74.77 107.77 74.77L105.87 61.77L118.67 58.17M118.67 54.17C118.31 54.17 117.94 54.22 117.59 54.32L104.79 57.92C102.86 58.46 101.62 60.36 101.91 62.35L103.81 75.35C104 76.65 104.82 77.77 105.99 78.36C106.15 78.44 122.54 86.55 130.11 90.19C130.66 90.45 131.25 90.58 131.84 90.58C132.79 90.58 133.72 90.24 134.47 89.6C135.67 88.55 136.14 86.89 135.65 85.36L132.73 76.23L142.91 72.05C144.37 71.45 145.34 70.04 145.39 68.46C145.43 66.88 144.54 65.42 143.12 64.74C138.65 62.6 121.03 54.84 120.28 54.51C119.77 54.28 119.22 54.17 118.67 54.17Z" fill="#1C1C36"/>
<path d="M105.87 61.76L121.39 70.04" stroke="#1C1C36" stroke-width="4" stroke-linecap="round" stroke-linejoin="round"/>
<path d="M113.63 65.9L121.45 64.23" stroke="#1C1C36" stroke-width="4" stroke-linecap="round" stroke-linejoin="round"/>
<path d="M119.68 69.16L127.5 67.49" stroke="#1C1C36" stroke-width="4" stroke-linecap="round" stroke-linejoin="round"/>
<path d="M114.38 65.91L115.75 73.89" stroke="#1C1C36" stroke-width="4" stroke-linecap="round" stroke-linejoin="round"/>
<path d="M120.22 68.98L121.58 76.96" stroke="#1C1C36" stroke-width="4" stroke-linecap="round" stroke-linejoin="round"/>
</svg>
