<svg width="526" height="289" viewBox="0 0 526 289" fill="none" xmlns="http://www.w3.org/2000/svg">
<path d="M55.8838 202.89H471.654" stroke="#1C1C36" stroke-width="4" stroke-miterlimit="10"/>
<path d="M117.674 200.91L85.5738 202.07L83.5938 211.11L81.1838 216.42C78.2738 217.45 74.6638 217.22 71.8338 216.59C68.2438 215.79 64.5838 214.19 61.5338 212.13C59.3138 210.64 56.9538 208.54 56.2538 205.86C56.0538 205.1 56.0138 204.29 56.1438 203.52C56.2538 202.9 56.4838 202.31 56.8438 201.8C57.1738 201.32 57.5838 200.96 58.0638 200.7C59.7238 202.03 61.4138 203.41 63.1338 204.85C63.3238 205.01 63.5038 205.17 63.6938 205.33C63.7238 204.03 63.8038 202.79 63.9238 201.59C63.9238 201.54 63.9338 201.48 63.9438 201.42C67.7238 165.65 111.164 172.68 111.164 172.68L117.664 200.93L117.674 200.91Z" fill="#1C1C36"/>
<path d="M126.794 204.07C123.644 204.07 120.504 203.32 117.714 201.91C89.3338 187.55 65.8338 170.08 47.8738 149.98C31.8838 132.09 12.9738 104.17 13.6838 72.78C14.0738 55.72 19.4238 39.78 28.7638 27.89C38.9938 14.85 53.3738 7.24001 70.3438 5.88001C72.0238 5.75001 73.7338 5.68001 75.4138 5.68001C88.8938 5.68001 101.754 9.92001 112.614 17.94C113.544 18.63 114.554 19.26 115.634 19.81C118.654 21.36 122.044 22.17 125.434 22.17C129.004 22.17 132.544 21.27 135.674 19.57C136.744 19 137.784 18.31 138.774 17.52C148.504 9.80001 160.234 5.19001 172.684 4.19001C174.414 4.05001 176.164 3.98001 177.884 3.98001C195.604 3.98001 211.744 11.38 223.334 24.82C235.764 39.23 241.244 58.57 238.374 77.86C234.504 103.88 221.974 129.77 202.144 152.73C183.764 174 159.844 191.65 134.794 202.42C132.254 203.51 129.564 204.06 126.794 204.06V204.07Z" fill="#FF6565"/>
<path d="M177.884 5.98001C215.794 5.98001 241.844 40.94 236.394 77.57C228.354 131.64 183.184 179.44 133.994 200.59C131.694 201.58 129.244 202.07 126.784 202.07C123.974 202.07 121.164 201.42 118.604 200.13C92.8938 187.12 68.5738 170.16 49.3538 148.65C30.9138 128.01 15.0338 101.21 15.6738 72.83C16.4238 40.12 35.7138 10.65 70.5038 7.87001C72.1538 7.74001 73.7938 7.67001 75.4238 7.67001C88.7938 7.67001 101.304 12.06 111.434 19.54C112.484 20.32 113.584 21 114.734 21.58C118.094 23.3 121.774 24.16 125.444 24.16C129.304 24.16 133.154 23.21 136.644 21.31C137.824 20.68 138.954 19.92 140.034 19.07C149.124 11.85 160.394 7.17001 172.864 6.17001C174.564 6.03001 176.244 5.97001 177.904 5.97001M177.904 1.97001C176.144 1.97001 174.344 2.04001 172.554 2.19001C159.704 3.22001 147.604 7.97001 137.554 15.94C136.654 16.66 135.714 17.28 134.754 17.79C131.894 19.34 128.684 20.16 125.444 20.16C122.204 20.16 119.294 19.42 116.564 18.02C115.574 17.52 114.664 16.95 113.834 16.33C102.614 8.04001 89.3438 3.66001 75.4338 3.66001C73.6938 3.66001 71.9338 3.73001 70.2038 3.87001C52.6638 5.27001 37.7938 13.15 27.1938 26.64C17.5938 38.87 12.0938 55.23 11.6938 72.72C10.9638 104.76 30.1638 133.13 46.3938 151.29C64.5238 171.58 88.2238 189.2 116.824 203.67C119.894 205.22 123.354 206.05 126.814 206.05C129.854 206.05 132.814 205.44 135.604 204.24C160.934 193.35 185.114 175.51 203.684 154.02C223.764 130.77 236.454 104.54 240.384 78.14C243.344 58.27 237.694 38.35 224.884 23.5C212.914 9.61001 196.234 1.96001 177.914 1.96001L177.904 1.97001Z" fill="#1C1C36"/>
<path d="M125.114 200.13C126.674 200.92 128.334 201.47 130.024 201.79C126.174 202.48 122.164 201.93 118.614 200.13C92.9038 187.12 68.5838 170.16 49.3638 148.65C30.9138 128.02 15.0338 101.21 15.6738 72.84C16.4238 40.13 35.7238 10.66 70.5038 7.88001C73.2638 7.66001 76.0038 7.63001 78.7038 7.77001C78.1338 7.80001 77.5738 7.84001 77.0038 7.88001C42.2238 10.66 22.9238 40.13 22.1738 72.84C21.5338 101.21 37.4138 128.02 55.8638 148.65C75.0838 170.16 99.4038 187.12 125.114 200.13Z" fill="white"/>
<g style="mix-blend-mode:multiply" opacity="0.27">
<path d="M112.964 18.82C111.774 26.04 113.724 33.67 117.884 41.59C121.114 27.29 135.764 19.66 135.764 19.66L135.914 19.32C128.664 22.98 120.064 22.8 112.964 18.83V18.82Z" fill="#FF6565"/>
</g>
<path d="M85.9438 15.96C86.4738 14 84.7738 11.84 82.1438 11.12C79.5138 10.4 76.9638 11.41 76.4338 13.36C75.9038 15.32 77.6038 17.48 80.2338 18.2C82.8638 18.92 85.4138 17.91 85.9438 15.96Z" fill="white"/>
<path d="M95.0238 19.88C95.3738 18.59 94.2538 17.16 92.5138 16.68C90.7838 16.21 89.0938 16.87 88.7438 18.16C88.3938 19.45 89.5138 20.88 91.2538 21.36C92.9838 21.83 94.6738 21.17 95.0238 19.88Z" fill="white"/>
<path d="M222.464 89.77C222.044 98.87 219.504 107.92 216.234 116.41C207.944 137.8 193.484 156.6 175.824 171.14C172.314 174.02 168.514 176.61 164.794 179.2C167.864 175.85 171.214 172.81 174.294 169.49C195.884 146.85 213.554 119.99 222.454 89.77H222.464Z" fill="#1C1C36"/>
<path d="M117.884 41.59C119.844 31.49 127.394 23.29 135.494 17.43C141.664 13.02 148.724 9.85 155.984 7.73C158.434 7.13 160.884 6.58 163.354 6.16C158.934 8.48 154.474 10.53 150.144 12.92C137.534 19.97 125.334 28.94 117.894 41.59H117.884Z" fill="#1C1C36"/>
<path d="M217.204 31.78C219.474 34.48 221.524 37.25 223.054 40.45C223.954 42.34 224.494 44.12 223.984 46.24C223.554 48 222.264 49.94 220.664 50.85C218.944 51.83 216.854 52.36 214.904 51.78C213.144 51.27 211.144 50.18 210.314 48.45C209.304 46.33 208.054 44.34 206.634 42.48C205.064 40.67 203.324 39.04 201.444 37.57C199.404 36.17 197.224 34.98 194.944 34.02C192.694 33.23 190.374 32.66 188.014 32.34C187.334 32.29 186.654 32.26 185.974 32.26C184.004 32.24 182.054 31.59 180.594 30.21C179.254 28.94 178.204 26.82 178.234 24.94C178.264 22.99 178.844 20.94 180.274 19.54C181.674 18.17 183.514 17.15 185.514 17.17C197.424 17.27 209.454 22.6 217.204 31.78Z" fill="white"/>
<path d="M213.924 66.02C214.074 71.15 217.704 75.21 222.024 75.08C226.344 74.95 229.724 70.68 229.574 65.55C229.424 60.42 225.794 56.36 221.474 56.49C217.154 56.62 213.774 60.89 213.924 66.02Z" fill="white"/>
<path d="M160.174 186.27L141.364 219.34L145.354 221.78C145.354 221.78 145.354 221.78 145.354 221.79L148.884 223.96C148.884 223.96 151.864 221.63 154.814 222.01C155.014 222.75 155.074 223.52 155.024 224.29C154.754 227.77 152.294 230.89 149.894 233.23C146.564 236.46 142.394 239.26 138.114 241.05C134.304 242.65 129.134 243.84 125.004 242.57C126.634 241.75 128.334 240.95 130.084 240.15C127.054 239.36 124.714 238.06 122.974 236.34C110.114 223.75 129.594 189.01 139.144 173.84C141.404 170.25 145.344 168.15 149.484 168.15C150.394 168.15 151.304 168.25 152.214 168.46C160.204 170.27 164.194 179.2 160.164 186.27H160.174Z" fill="#1C1C36"/>
<path d="M81.1938 58.86C80.9638 69.73 78.3938 82.24 84.2138 91.63C92.6938 102.29 103.034 95.07 105.194 83.71C106.934 76.24 105.694 68.78 107.314 61.1L107.964 61.03C109.714 64.73 110.394 68.64 110.524 72.62C111.154 83.14 108.404 96.63 97.0338 100.4C90.9538 102.13 84.4638 98.88 80.9438 93.93C74.2738 83.64 77.2838 69.61 81.1938 58.86Z" fill="#1C1C36"/>
<path d="M130.364 52.18C131.164 62.29 128.974 72.42 132.484 82.02C133.724 85.18 135.404 88.38 138.754 89.2C143.694 90.32 148.934 86.75 151.554 82.66C155.574 75.85 155.754 67.84 155.684 60.06C155.704 55.94 155.584 51.83 155.954 47.66L156.274 47.61C161.074 59.02 161.984 74.05 155.894 85.32C152.144 91.37 144.804 96.02 137.414 94.13C123.274 90.08 124.594 62.39 130.354 52.17L130.364 52.18Z" fill="#1C1C36"/>
<path d="M162.664 128.81C159.134 132.3 155.374 135.34 152.094 137.79C150.684 138.84 149.204 139.83 147.684 140.74C140.384 145.16 131.914 147.99 123.304 148.56C122.374 148.63 121.384 148.65 120.364 148.67C111.074 148.76 98.8538 146.54 93.1838 139.31C91.2638 136.85 90.2938 133.51 91.2638 130.56C92.2338 127.6 94.3438 126.01 96.8738 125.04C99.9938 123.85 103.764 123.61 106.834 122.94C121.374 119.73 134.084 111.59 145.984 103.04C149.104 100.8 151.994 98.82 154.774 96.21C157.374 93.76 161.624 90.4 165.454 90.73C169.794 91.11 173.464 96.07 174.564 99.84C174.934 101.08 175.144 102.3 175.244 103.53C176.034 112.82 169.834 121.72 162.654 128.8L162.664 128.81Z" fill="#1C1C36"/>
<path d="M121.194 147.65C120.874 145.8 120.794 143.9 120.954 141.99C121.924 130.41 131.464 121.39 143.144 121.01L143.904 120.99L144.084 120.26C146.624 110.04 155.824 102.9 166.444 102.9C167.094 102.9 167.754 102.93 168.404 102.98C170.434 103.15 172.414 103.58 174.294 104.25C174.664 111.63 170.514 119.65 161.954 128.1C158.984 131.03 155.464 134.03 151.494 136.99C150.084 138.04 148.624 139.02 147.174 139.88C139.784 144.36 131.514 147.01 123.244 147.56C122.604 147.61 121.924 147.63 121.194 147.65Z" fill="#FFAD84"/>
<path d="M166.444 103.89C167.064 103.89 167.704 103.92 168.324 103.97C170.034 104.11 171.714 104.45 173.314 104.97C173.384 111.87 169.334 119.41 161.254 127.39C158.324 130.29 154.834 133.25 150.894 136.19C149.504 137.22 148.084 138.18 146.644 139.04C139.394 143.43 131.274 146.04 123.154 146.57C122.794 146.6 122.424 146.62 122.044 146.63C121.854 145.14 121.814 143.61 121.944 142.08C122.864 131 131.994 122.38 143.174 122.02L144.684 121.97L145.044 120.5C147.474 110.72 156.274 103.9 166.434 103.9M166.434 101.9C155.324 101.9 145.724 109.48 143.104 120.02C131.074 120.41 120.964 129.7 119.944 141.92C119.754 144.24 119.894 146.51 120.354 148.68C121.374 148.66 122.364 148.64 123.294 148.57C131.904 148 140.374 145.18 147.674 140.75C149.194 139.84 150.674 138.85 152.084 137.8C155.364 135.35 159.124 132.31 162.654 128.82C169.824 121.73 176.034 112.84 175.244 103.55C173.134 102.72 170.864 102.19 168.484 101.99C167.794 101.93 167.114 101.9 166.434 101.9Z" fill="#1C1C36"/>
<path d="M147.594 109.54C147.594 109.54 141.814 124.84 145.964 134.48C145.964 134.48 134.634 125.24 141.074 113.6L147.604 109.54H147.594Z" fill="#1C1C36"/>
<path d="M189.144 147.55L201.574 195.5L218.054 190.65L202.974 126.76C202.034 122.78 196.924 121.58 194.294 124.71C188.984 131.05 187.074 139.55 189.144 147.55Z" fill="#1C1C36"/>
<path d="M202.034 118.79C200.014 119.75 198.784 119.75 197.574 119.63C190.934 119.09 186.984 125.86 185.394 131.68C184.634 134.37 184.074 137.15 184.074 140.11C183.424 138.77 183.064 137.27 182.874 135.77C182.034 127.88 185.174 116.86 194.224 115.3C197.254 115.04 200.874 115.16 202.024 118.79H202.034Z" fill="#1C1C36"/>
<path d="M224.574 180.67C226.384 185.38 222.794 196.66 212.834 200.4C202.874 204.15 190.294 198.94 188.494 194.23C186.684 189.52 193.144 182.29 203.114 178.54C213.074 174.79 222.774 175.96 224.584 180.66L224.574 180.67Z" fill="white" stroke="#1C1C36" stroke-width="4" stroke-linecap="round" stroke-linejoin="round"/>
<g style="mix-blend-mode:multiply" opacity="0.43">
<path d="M223.104 186.87C224.244 189.84 220.724 197.43 212.604 200.49C204.484 203.55 194.864 200.91 193.714 197.94C192.574 194.97 198.124 189.85 206.234 186.79C214.344 183.73 221.954 183.9 223.094 186.87H223.104Z" fill="#D8B4F8"/>
</g>
<path d="M252.904 221.16C251.924 222.61 250.404 223.3 248.714 223.56C248.104 223.65 246.864 223.67 246.864 223.67C246.864 223.67 247.394 225.58 247.504 226.58C247.564 227.17 247.564 227.73 247.474 228.28V228.3C247.374 229.14 247.104 229.93 246.694 230.63C245.864 232.06 244.444 233.12 242.534 233.55C237.294 234.74 233.644 229.64 231.064 225.92C231.064 225.97 231.074 226.01 231.074 226.06C231.264 228.81 231.754 231.81 230.384 234.12C229.984 234.8 229.424 235.42 228.654 235.95C226.284 237.6 223.324 237.19 220.874 235.95C218.434 234.71 217.064 231.94 215.914 229.61C214.454 226.65 211.504 220.85 209.014 215.91C208.624 215.14 208.254 214.4 207.894 213.69C207.314 212.64 206.754 211.59 206.154 210.55C196.394 224 191.404 224.99 187.904 218.24C184.404 211.48 187.284 203.1 194.324 199.52C197.754 197.78 201.484 196.56 204.814 196.53C209.144 190.99 218.834 187.71 227.074 190.92C236.724 194.68 241.374 197.83 246.444 203.41C248.824 206.04 250.924 208.92 252.384 212.13C252.984 213.45 253.554 215.08 253.734 216.7C253.934 218.3 253.764 219.87 252.904 221.16Z" fill="white" stroke="#1C1C36" stroke-width="4" stroke-linecap="round" stroke-linejoin="round"/>
<path d="M219.914 199.99C221.744 203.16 222.114 206.37 220.754 207.16C219.384 207.95 216.794 206.02 214.964 202.85C213.134 199.68 212.764 196.47 214.124 195.68C215.494 194.89 218.084 196.82 219.914 199.99Z" fill="#1C1C36"/>
<path d="M226.204 196.15C228.794 198.74 229.984 201.74 228.864 202.85C227.744 203.96 224.744 202.77 222.164 200.19C219.574 197.6 218.384 194.6 219.504 193.49C220.624 192.37 223.624 193.57 226.204 196.15Z" fill="#1C1C36"/>
<g style="mix-blend-mode:multiply" opacity="0.43">
<path d="M246.694 230.63C245.864 232.06 244.444 233.12 242.534 233.55C237.294 234.74 233.644 229.64 231.064 225.92C231.064 225.97 231.074 226.01 231.074 226.06C229.094 221.8 227.054 217.28 225.024 212.28C226.044 212.28 234.004 223.26 236.044 225.61C238.084 227.95 243.904 230.92 246.224 226.35C246.224 226.35 246.124 230.3 246.564 230.54C246.604 230.56 246.654 230.59 246.694 230.63Z" fill="#D8B4F8"/>
</g>
<g style="mix-blend-mode:multiply" opacity="0.43">
<path d="M252.904 221.16C251.924 222.61 250.404 223.3 248.714 223.56C248.104 223.65 246.864 223.67 246.864 223.67C246.864 223.67 247.394 225.58 247.504 226.58C247.564 227.17 247.564 227.73 247.474 228.28L247.334 227.36C243.784 219.86 244.564 215.77 236.724 207.02C237.714 206.99 244.164 213.67 246.204 216.02C248.084 218.18 251.404 220.03 253.734 216.71C253.934 218.3 253.764 219.87 252.904 221.16Z" fill="#D8B4F8"/>
</g>
<g style="mix-blend-mode:multiply" opacity="0.43">
<path d="M230.384 234.12C229.984 234.8 229.424 235.42 228.654 235.95C226.284 237.6 223.324 237.19 220.874 235.95C218.434 234.71 217.064 231.94 215.914 229.61C214.454 226.65 211.504 220.85 209.014 215.91C208.754 214.53 208.514 213.15 208.294 211.76C208.254 211.49 208.224 211.16 208.434 210.99C208.674 210.79 209.044 210.92 209.314 211.09C210.714 211.97 211.644 213.44 212.434 214.9C214.364 218.48 215.814 222.33 218.044 225.73C220.284 229.13 223.544 232.14 227.554 232.84C228.264 232.97 229.004 233.03 229.624 233.39C229.934 233.58 230.194 233.83 230.384 234.12Z" fill="#D8B4F8"/>
</g>
<path d="M223.204 209.43C227.824 215.06 231.224 221.66 233.644 228.56L229.744 229.45C228.674 222.52 226.594 215.63 223.204 209.43Z" fill="#1C1C36"/>
<path d="M236.724 207.02C239.604 209.52 241.924 212.58 244.144 215.68C246.384 218.95 248.354 222.31 249.474 226.23L245.544 226.95C244.564 219.79 241.014 212.82 236.734 207.02H236.724Z" fill="#1C1C36"/>
<path d="M67.6038 235.34C65.4938 235.34 63.4338 234.75 61.6438 233.62C59.6038 232.34 57.1338 231 54.2938 229.62C46.2338 225.74 37.6138 223.52 28.6538 223.01C22.3338 222.65 16.8138 221.5 12.2638 219.59C4.34381 216.24 0.243808 207.55 2.72381 199.38C6.38381 187.23 13.1038 181.07 22.6938 181.07C32.2838 181.07 44.0038 186.98 59.3138 199.13C59.8338 199.54 60.1138 200.19 60.0638 200.86C60.0138 201.53 59.6338 202.12 59.0438 202.44C58.8038 202.57 58.6238 202.73 58.4838 202.94C58.3038 203.2 58.1838 203.51 58.1138 203.87C58.0338 204.33 58.0538 204.86 58.1838 205.35C58.6238 207.06 60.1238 208.78 62.6438 210.47C65.5438 212.43 68.9638 213.91 72.2638 214.64C73.7038 214.96 75.1938 215.13 76.5638 215.13C78.0738 215.13 79.3938 214.93 80.5038 214.54C80.7238 214.46 80.9438 214.42 81.1738 214.42C81.7238 214.42 82.2638 214.65 82.6438 215.07C83.1838 215.66 83.3238 216.52 82.9938 217.25L77.7138 228.86C75.9238 232.8 71.9538 235.34 67.5838 235.34H67.6038Z" fill="#D8B4F8"/>
<path d="M22.6938 183.07C32.1238 183.07 44.2238 189.71 58.0738 200.69C57.5938 200.96 57.1838 201.32 56.8538 201.79C56.4938 202.3 56.2738 202.89 56.1538 203.51C56.0138 204.28 56.0638 205.09 56.2638 205.85C56.9638 208.54 59.3238 210.63 61.5438 212.12C64.5938 214.18 68.2638 215.79 71.8438 216.58C73.2838 216.9 74.9238 217.12 76.5838 217.12C78.2438 217.12 79.7638 216.92 81.1938 216.41L75.9138 228.02C74.3738 231.4 71.0538 233.32 67.6038 233.32C65.9338 233.32 64.2338 232.87 62.7038 231.91C60.3738 230.45 57.7738 229.07 55.1638 227.81C46.9138 223.84 37.9238 221.52 28.7738 221C21.9338 220.62 16.8338 219.33 13.0438 217.74C6.1038 214.8 2.4638 207.13 4.6338 199.95C8.1838 188.17 14.4138 183.06 22.6938 183.06M22.6938 179.06C15.4238 179.06 5.7238 182.49 0.803802 198.8C-1.9662 207.95 2.6238 217.68 11.4838 221.43C16.2538 223.43 21.9938 224.64 28.5438 225C37.2338 225.5 45.6038 227.66 53.4338 231.42C56.1938 232.76 58.6038 234.06 60.5738 235.3C62.6938 236.63 65.1238 237.33 67.6038 237.33C72.7438 237.33 77.4338 234.33 79.5538 229.68L84.7738 218.2C85.0438 217.66 85.1938 217.05 85.1938 216.41C85.1938 214.23 83.4538 212.46 81.2838 212.41C81.2538 212.41 81.2238 212.41 81.1938 212.41C81.0938 212.41 80.9938 212.41 80.8938 212.42C80.5038 212.45 80.1338 212.53 79.7838 212.66C78.9138 212.96 77.8038 213.11 76.5738 213.11C75.3438 213.11 74.0138 212.96 72.7038 212.67C69.6338 211.99 66.4638 210.61 63.7638 208.79C61.7238 207.42 60.4338 206.01 60.1238 204.83C60.0638 204.61 60.0538 204.38 60.0838 204.2C60.0838 204.17 60.0938 204.14 60.1038 204.12C61.2238 203.46 61.9438 202.29 62.0538 201C62.1638 199.67 61.5938 198.38 60.5538 197.55C44.8738 185.11 32.4938 179.06 22.6938 179.06Z" fill="#1C1C36"/>
<path d="M14.4638 191.03C14.0438 188.93 16.2438 186.71 19.3938 186.08C22.5338 185.45 25.4338 186.64 25.8538 188.74C26.2738 190.84 24.0738 193.06 20.9238 193.69C17.7838 194.32 14.8838 193.13 14.4638 191.03Z" fill="white"/>
<path d="M32.3738 190.94C31.8038 192.14 30.1638 192.55 28.7138 191.86C27.2638 191.17 26.5538 189.64 27.1238 188.44C27.6938 187.24 29.3338 186.83 30.7838 187.52C32.2338 188.21 32.9438 189.74 32.3738 190.94Z" fill="white"/>
<path d="M76.5738 219.13C74.9138 219.13 73.1238 218.93 71.4038 218.54C67.6138 217.7 63.7138 216.01 60.4138 213.78C57.0638 211.53 55.0138 209.03 54.3238 206.35C54.0438 205.3 54.0038 204.19 54.1838 203.16C54.3538 202.23 54.6938 201.39 55.2038 200.65C55.6938 199.94 56.3238 199.37 57.0938 198.94C58.0538 198.4 59.2038 198.11 60.4038 198.11C62.1938 198.11 63.9438 198.74 65.2038 199.84C65.2938 199.91 65.4038 200 65.5138 200.12C66.2138 200.87 66.2238 202.03 65.5538 202.8C65.5438 202.81 65.5338 202.83 65.5138 202.84C65.4238 203.04 65.2638 203.41 65.1738 203.64C65.0238 204.01 65.0438 204.22 65.0838 204.36C65.1538 204.66 65.3838 205.04 65.7738 205.48C67.7738 207.76 70.4338 209.44 73.2538 210.21C74.2238 210.47 75.2038 210.61 76.1538 210.61C77.4338 210.61 78.6338 210.37 79.7338 209.9C79.8338 209.84 79.9738 209.74 80.1338 209.63C81.1338 208.95 81.6938 208.57 82.4438 208.57C82.6338 208.57 82.8438 208.6 83.0238 208.65C83.6938 208.83 84.3138 209.14 84.8338 209.54C85.9638 210.4 86.5638 211.74 86.4738 213.18C86.3638 214.89 85.2938 216.53 83.6838 217.47C83.0838 217.81 82.4838 218.09 81.8638 218.31C80.3138 218.86 78.5438 219.14 76.5738 219.14V219.13Z" fill="#D8B4F8"/>
<path d="M60.4038 200.11C61.7038 200.11 63.0338 200.57 63.9538 201.41C63.9838 201.43 64.0238 201.46 64.0438 201.48C64.0438 201.48 64.0438 201.48 64.0338 201.48C64.0138 201.48 63.9738 201.52 63.9338 201.58C63.7338 201.88 63.3538 202.81 63.3138 202.9C63.0238 203.61 62.9838 204.25 63.1338 204.84C63.2938 205.52 63.7038 206.16 64.2538 206.79C66.4738 209.33 69.4538 211.25 72.7138 212.14C73.8338 212.44 74.9938 212.61 76.1338 212.61C77.6638 212.61 79.1938 212.32 80.6138 211.69C80.8738 211.56 82.2038 210.58 82.4238 210.58H82.4338C82.9038 210.71 83.2838 210.89 83.5738 211.13C85.1138 212.32 84.5138 214.67 82.6538 215.76C82.1838 216.03 81.6838 216.26 81.1738 216.44C79.7438 216.95 78.1538 217.15 76.5638 217.15C74.9738 217.15 73.2638 216.93 71.8238 216.61C68.2338 215.81 64.5738 214.21 61.5238 212.15C59.3038 210.66 56.9438 208.56 56.2438 205.88C56.0438 205.12 56.0038 204.31 56.1338 203.54C56.2438 202.92 56.4738 202.33 56.8338 201.82C57.1638 201.34 57.5738 200.98 58.0538 200.72C58.7538 200.33 59.5638 200.14 60.3838 200.14M60.3838 196.14C58.8438 196.14 57.3538 196.52 56.0838 197.23C55.0638 197.8 54.2038 198.58 53.5438 199.54C52.8638 200.51 52.4138 201.62 52.1938 202.83C51.9538 204.16 52.0138 205.56 52.3638 206.89C53.1838 210.06 55.5138 212.95 59.2838 215.48C62.7838 217.84 66.9238 219.63 70.9538 220.53C72.8138 220.94 74.7538 221.16 76.5538 221.16C78.7438 221.16 80.7438 220.84 82.5038 220.22C83.2338 219.96 83.9438 219.63 84.6238 219.24C86.8438 217.95 88.2838 215.69 88.4338 213.33C88.5638 211.21 87.6838 209.25 86.0038 207.96C85.3138 207.42 84.4538 207 83.4838 206.73C83.1338 206.64 82.7738 206.59 82.4138 206.59C81.0438 206.59 80.1338 207.21 78.9838 207.99C78.9038 208.04 78.8338 208.1 78.7638 208.14C77.9638 208.46 77.0738 208.63 76.1338 208.63C75.3538 208.63 74.5538 208.52 73.7538 208.3C71.3138 207.64 69.0038 206.17 67.2538 204.18C67.2138 204.14 67.1838 204.1 67.1638 204.07C67.1838 204.02 67.2038 203.97 67.2238 203.93C68.4038 202.37 68.2938 200.17 66.9138 198.74C66.7538 198.57 66.5938 198.43 66.4538 198.33C64.8338 196.94 62.6338 196.15 60.3838 196.15V196.14Z" fill="#1C1C36"/>
<path d="M76.7517 216.203C77.9803 216.118 78.9299 215.383 78.8727 214.562C78.8154 213.741 77.773 213.145 76.5444 213.23C75.3158 213.316 74.3662 214.051 74.4235 214.872C74.4807 215.693 75.5231 216.289 76.7517 216.203Z" fill="white"/>
<path d="M72.0538 213.72C72.3338 213.29 72.9738 213.22 73.4938 213.55C74.0138 213.88 74.2038 214.5 73.9238 214.93C73.6438 215.36 73.0038 215.43 72.4838 215.1C71.9638 214.77 71.7738 214.15 72.0538 213.72Z" fill="white"/>
<path d="M108.434 286.38C107.424 286.38 106.404 286.26 105.404 286.03C100.844 284.96 97.2038 281.62 95.8938 277.3C91.8638 264 101.074 251.98 124.044 240.56C124.324 240.42 124.624 240.35 124.934 240.35C125.134 240.35 125.334 240.38 125.524 240.44C126.484 240.74 127.584 240.89 128.784 240.89C132.234 240.89 135.574 239.7 137.264 238.99C141.254 237.32 145.224 234.69 148.424 231.58C151.244 228.83 152.774 226.25 152.954 223.92C152.994 223.36 152.944 222.81 152.804 222.31C152.644 221.71 152.774 221.07 153.144 220.57C153.524 220.08 154.104 219.79 154.734 219.79C154.904 219.79 155.084 219.81 155.264 219.84C161.304 220.85 168.184 227.7 169.124 233.66C169.334 234.96 169.244 236.29 168.874 237.61C167.484 242.56 162.324 246.48 158.914 249.07L158.594 249.32C158.124 249.68 157.654 250.02 157.184 250.36C155.564 251.54 154.164 252.55 153.154 254.05L152.384 255.2C150.534 257.96 148.614 260.82 146.344 263.47C139.094 271.95 129.704 278.65 118.444 283.39C117.264 283.89 116.064 284.35 114.874 284.82L113.244 285.46C111.704 286.07 110.084 286.38 108.414 286.38H108.434Z" fill="#D8B4F8"/>
<path d="M154.754 221.79C154.814 221.79 154.874 221.8 154.934 221.81C160.044 222.67 166.354 228.82 167.164 233.98C167.334 235.05 167.244 236.08 166.964 237.08C165.714 241.53 160.644 245.26 157.394 247.74C155.194 249.42 153.034 250.68 151.514 252.94C149.374 256.11 147.334 259.26 144.844 262.17C137.474 270.78 128.094 277.17 117.684 281.55C115.974 282.27 114.244 282.92 112.524 283.61C111.214 284.13 109.824 284.39 108.434 284.39C107.574 284.39 106.714 284.29 105.864 284.09C102.064 283.2 98.9338 280.43 97.8138 276.73C93.8238 263.55 104.854 252.35 124.944 242.36C126.154 242.73 127.464 242.89 128.794 242.89C131.994 242.89 135.364 241.96 138.054 240.84C142.334 239.05 146.504 236.25 149.834 233.02C152.234 230.68 154.694 227.56 154.964 224.08C155.014 223.31 154.954 222.54 154.754 221.8M154.754 217.8C153.504 217.8 152.334 218.38 151.574 219.37C150.814 220.36 150.564 221.64 150.884 222.85C150.954 223.13 150.984 223.45 150.964 223.8C150.814 225.6 149.454 227.8 147.034 230.16C144.014 233.09 140.264 235.58 136.504 237.15C133.864 238.26 131.054 238.89 128.794 238.89C127.784 238.89 126.884 238.77 126.114 238.53C125.734 238.41 125.334 238.35 124.934 238.35C124.324 238.35 123.714 238.49 123.154 238.77C112.034 244.3 104.224 249.86 99.2738 255.77C93.4338 262.75 91.6438 270.19 93.9738 277.88C95.4838 282.88 99.6838 286.75 104.944 287.98C106.084 288.25 107.264 288.39 108.424 288.39C110.344 288.39 112.214 288.03 113.994 287.33C114.524 287.12 115.054 286.91 115.584 286.71C116.774 286.24 118.014 285.76 119.234 285.25C130.784 280.39 140.424 273.5 147.884 264.79C150.234 262.04 152.184 259.13 154.074 256.32L154.834 255.19C155.644 253.99 156.854 253.11 158.384 252C158.864 251.66 159.344 251.3 159.824 250.94L160.154 250.69C163.774 247.94 169.254 243.77 170.824 238.18C171.274 236.58 171.374 234.96 171.124 233.37C170.054 226.57 162.504 219.04 155.604 217.88C155.464 217.86 155.154 217.8 154.764 217.8H154.754Z" fill="#1C1C36"/>
<path d="M128.864 245.11C127.264 245.11 125.764 244.9 124.424 244.49C124.214 244.43 124.034 244.36 123.834 244.29C121.584 243.47 119.934 241.55 119.664 239.4C119.424 237.54 120.224 235.83 121.854 234.7C122.134 234.5 122.444 234.32 122.794 234.15C123.064 234.02 123.404 233.95 123.704 233.95C124.314 233.95 124.894 234.2 126.054 234.71C126.314 234.83 126.554 234.94 126.714 235C127.574 235.21 128.464 235.31 129.364 235.31C131.284 235.31 133.304 234.83 135.204 233.93C138.614 232.31 141.614 229.57 143.644 226.2C144.534 224.72 144.444 224.03 143.964 223.26C143.964 223.24 143.784 222.99 143.784 222.99C143.754 222.95 143.734 222.92 143.704 222.88C143.484 222.55 143.344 222.34 143.254 222.22C143.214 222.19 143.174 222.16 143.134 222.13C142.344 221.45 142.204 220.27 142.824 219.43C144.354 217.34 147.104 215.99 149.814 215.99C151.764 215.99 153.544 216.7 154.824 217.98C155.564 218.71 156.134 219.61 156.524 220.65C156.624 220.92 156.714 221.23 156.794 221.57C157.024 222.41 157.114 223.39 157.044 224.42C156.784 227.82 154.904 231.16 151.314 234.66C147.754 238.12 143.344 241.04 138.904 242.89C136.944 243.71 133.024 245.1 128.874 245.1L128.864 245.11Z" fill="#D8B4F8"/>
<path d="M149.794 217.99C151.124 217.99 152.414 218.42 153.384 219.39C153.944 219.95 154.354 220.62 154.634 221.36C154.714 221.57 154.774 221.79 154.824 222.01C155.024 222.75 155.084 223.52 155.034 224.29C154.764 227.77 152.304 230.89 149.904 233.23C146.574 236.46 142.404 239.26 138.124 241.05C135.434 242.18 132.064 243.1 128.864 243.1C127.534 243.1 126.224 242.94 125.014 242.57C124.854 242.52 124.704 242.47 124.544 242.41C121.704 241.38 120.464 238.08 122.984 236.34C123.184 236.2 123.404 236.07 123.654 235.95C123.664 235.95 123.674 235.95 123.694 235.95C124.044 235.95 125.814 236.84 126.164 236.93C127.214 237.19 128.284 237.31 129.344 237.31C131.644 237.31 133.944 236.74 136.044 235.74C139.884 233.92 143.144 230.87 145.334 227.24C146.364 225.52 146.724 223.95 145.634 222.21C145.614 222.17 145.504 222.01 145.364 221.8C145.364 221.8 145.36 221.797 145.354 221.79C145.044 221.32 144.564 220.61 144.434 220.61C144.434 220.61 144.424 220.61 144.414 220.61C145.584 219.01 147.734 217.99 149.794 217.99ZM149.794 213.99C146.414 213.99 143.114 215.62 141.194 218.24C139.974 219.91 140.224 222.23 141.764 223.6C141.824 223.69 141.914 223.82 142.024 223.98C142.054 224.03 142.094 224.08 142.124 224.12L142.154 224.17L142.224 224.27C142.224 224.27 142.244 224.3 142.254 224.31C142.274 224.34 142.284 224.36 142.294 224.38C142.264 224.49 142.174 224.73 141.914 225.16C140.094 228.18 137.394 230.65 134.344 232.1C132.714 232.88 130.994 233.29 129.364 233.29C128.674 233.29 127.984 233.22 127.334 233.07C127.204 233.02 127.054 232.94 126.884 232.87C125.664 232.33 124.774 231.93 123.714 231.93C123.124 231.93 122.494 232.07 121.954 232.33C121.504 232.54 121.094 232.79 120.714 233.06C118.504 234.59 117.374 237.05 117.704 239.64C118.074 242.53 120.234 245.09 123.204 246.16C123.394 246.23 123.614 246.31 123.844 246.38C125.394 246.86 127.084 247.1 128.894 247.1C133.394 247.1 137.594 245.62 139.694 244.73C144.354 242.78 148.974 239.71 152.714 236.09C156.674 232.23 158.744 228.47 159.044 224.59C159.124 223.33 159.024 222.15 158.724 221.04C158.624 220.63 158.514 220.27 158.384 219.93C157.894 218.64 157.164 217.5 156.224 216.56C154.574 214.9 152.294 213.99 149.804 213.99H149.794Z" fill="#1C1C36"/>
<path d="M100.844 271.17C98.9038 270.25 98.4438 267.16 99.8038 264.26C101.174 261.36 103.854 259.75 105.794 260.67C107.734 261.59 108.194 264.68 106.834 267.58C105.464 270.48 102.784 272.09 100.844 271.17Z" fill="white"/>
<path d="M111.454 256.75C112.074 257.92 111.434 259.48 110.014 260.23C108.594 260.98 106.944 260.64 106.324 259.46C105.704 258.29 106.344 256.73 107.764 255.98C109.184 255.23 110.834 255.57 111.454 256.75Z" fill="white"/>
<path d="M152.194 222.43C153.554 223.11 153.824 225.31 152.804 227.34C151.784 229.37 149.854 230.46 148.494 229.78C147.134 229.1 146.864 226.9 147.884 224.87C148.904 222.84 150.834 221.75 152.194 222.43Z" fill="white"/>
<path d="M144.414 232.46C143.994 231.62 144.484 230.52 145.494 230.02C146.514 229.51 147.674 229.79 148.094 230.63C148.514 231.47 148.024 232.57 147.014 233.07C145.994 233.58 144.834 233.3 144.414 232.46Z" fill="white"/>
<path d="M447.274 148.25L468.394 193.06L483.684 185.23L456.994 125.26C455.334 121.53 450.084 121.29 448.084 124.86C444.044 132.08 443.744 140.78 447.274 148.26V148.25Z" fill="#1C1C36"/>
<path d="M492.044 178C494.694 182.29 489.474 190.25 480.374 195.78C471.274 201.31 461.754 202.32 459.104 198.03C456.454 193.74 461.674 185.78 470.774 180.25C479.874 174.72 489.394 173.71 492.044 178Z" stroke="#1C1C36" stroke-width="4" stroke-miterlimit="10"/>
<path d="M513.964 192.49C507.954 187.95 500.484 183.26 492.614 183.82C483.794 184.44 475.004 187.22 471.784 193.47C468.514 194.12 465.074 196.01 462.024 198.36C455.764 203.19 454.504 211.95 459.194 217.94C463.884 223.93 468.614 222.02 475.694 206.99C476.474 207.9 477.224 208.83 477.984 209.75C481.584 214.45 486.534 220.86 488.824 223.9C490.384 225.97 492.244 228.44 494.874 229.2C497.504 229.97 500.494 229.81 502.524 227.76C505.474 224.77 503.924 220.93 503.024 217.45C506.254 220.63 510.784 224.96 515.714 222.82C518.954 221.41 520.274 218.28 519.304 215.05C519.014 214.09 518.134 212.31 518.134 212.31C518.134 212.31 519.354 212.06 519.934 211.85C521.544 211.29 522.904 210.32 523.594 208.71C524.824 205.83 523.064 202.29 521.414 199.94C519.384 197.06 516.784 194.61 513.954 192.48L513.964 192.49Z" fill="white" stroke="#1C1C36" stroke-width="4" stroke-linecap="round" stroke-linejoin="round"/>
<path d="M492.254 202.72C497.834 207.4 502.404 213.25 506.074 219.58L502.404 221.18C500.064 214.57 496.744 208.19 492.254 202.73V202.72Z" fill="#1C1C36"/>
<path d="M505.084 197.84C508.374 199.76 511.224 202.34 513.984 204.97C516.794 207.76 519.354 210.7 521.174 214.34L517.444 215.78C515.154 208.93 510.364 202.74 505.084 197.84Z" fill="#1C1C36"/>
<path d="M432.784 257.89C430.244 261.27 426.494 263.51 422.424 264.64C404.674 269.55 390.164 255.99 377.184 233.67C377.184 233.67 370.294 223.03 385.764 217.69C385.784 217.79 385.804 217.89 385.824 218C386.474 220.97 388.504 223.48 390.934 225.31C396.174 229.24 402.984 231.8 409.454 232.52C413.924 233.02 421.784 233.39 426.334 230.47C432.824 237.53 439.854 248.48 432.784 257.89Z" fill="#D8B4F8" stroke="#1C1C36" stroke-width="4" stroke-linecap="round" stroke-linejoin="round"/>
<path d="M426.004 220.37C423.774 221.33 421.234 222.24 418.354 223.09C418.354 223.09 422.234 226 426.334 230.46C421.784 233.38 413.924 233.01 409.454 232.51C402.984 231.79 396.174 229.23 390.934 225.3C388.504 223.47 386.474 220.96 385.824 217.99C385.804 217.88 385.784 217.78 385.764 217.68C387.634 217.04 389.824 216.47 392.384 216.01L396.574 208.13L400.834 200.1L390.444 197.63C374.104 193.75 374.104 170.51 390.494 166.84C390.654 166.8 390.814 166.77 390.974 166.73C394.774 165.91 398.744 166.57 402.134 168.48C417.724 177.3 461.614 205.07 426.004 220.37Z" fill="#1C1C36"/>
<path d="M402.134 168.48C398.744 166.57 394.774 165.91 390.974 166.73C390.814 166.77 390.654 166.8 390.494 166.84C374.104 170.51 374.104 193.75 390.444 197.63L398.044 199.62C399.514 199.11 419.094 187.84 419.374 187.84H419.544C419.724 187.84 425.564 192.42 428.814 194.99C427.464 195.65 425.994 197.45 425.164 198.39C422.084 201.89 421.594 208.21 423.994 212.21C425.664 215 429.274 218.46 432.844 217.3C433.654 217.04 434.364 216.54 434.954 215.93C435.764 215.09 436.054 213.95 436.754 213.09C449.584 197.48 415.494 176.03 402.144 168.48H402.134Z" fill="#FFC7EA"/>
<path d="M378.864 202.1C375.714 202.1 372.574 201.35 369.784 199.94C341.404 185.58 317.904 168.11 299.944 148.01C283.954 130.12 265.044 102.2 265.754 70.81C266.144 53.75 271.494 37.81 280.834 25.92C291.074 12.87 305.454 5.25999 322.424 3.90999C324.104 3.77999 325.814 3.70999 327.504 3.70999C340.974 3.70999 353.844 7.94999 364.694 15.97C365.624 16.66 366.634 17.29 367.714 17.84C370.734 19.39 374.124 20.21 377.514 20.2C381.084 20.2 384.624 19.3 387.754 17.6C388.824 17.03 389.864 16.34 390.854 15.55C400.584 7.82999 412.314 3.21999 424.764 2.21999C426.494 2.07999 428.244 2.00999 429.964 2.00999C447.684 2.00999 463.824 9.41 475.414 22.85C487.844 37.26 493.324 56.6 490.454 75.89C486.584 101.91 474.054 127.8 454.224 150.76C435.844 172.03 411.924 189.68 386.874 200.45C384.334 201.54 381.644 202.09 378.874 202.09L378.864 202.1Z" fill="#FF6565"/>
<path d="M429.964 4.01C467.874 4.01 493.924 38.97 488.474 75.6C480.434 129.67 435.264 177.47 386.074 198.62C383.774 199.61 381.324 200.1 378.864 200.1C376.054 200.1 373.244 199.45 370.684 198.16C344.974 185.15 320.654 168.19 301.434 146.68C282.994 126.04 267.104 99.24 267.754 70.86C268.504 38.15 287.804 8.68 322.584 5.9C324.234 5.77 325.874 5.7 327.504 5.7C340.874 5.7 353.384 10.09 363.514 17.57C364.564 18.35 365.664 19.03 366.814 19.61C370.174 21.33 373.854 22.19 377.524 22.19C381.384 22.19 385.234 21.24 388.724 19.34C389.904 18.71 391.044 17.95 392.114 17.1C401.204 9.88 412.474 5.2 424.944 4.2C426.644 4.06 428.324 4 429.984 4M429.984 0C428.224 0 426.424 0.07 424.634 0.22C411.784 1.25 399.684 6 389.634 13.97C388.734 14.68 387.794 15.31 386.834 15.82C383.974 17.37 380.764 18.19 377.534 18.19C374.304 18.19 371.384 17.45 368.654 16.05C367.664 15.55 366.754 14.98 365.924 14.36C354.704 6.07 341.434 1.69 327.524 1.69C325.784 1.69 324.024 1.76 322.294 1.9C304.754 3.3 289.884 11.18 279.284 24.67C269.684 36.9 264.184 53.26 263.784 70.75C263.054 102.79 282.254 131.16 298.484 149.32C316.614 169.61 340.314 187.23 368.914 201.7C371.984 203.25 375.444 204.08 378.904 204.08C381.944 204.08 384.904 203.47 387.694 202.27C413.024 191.38 437.204 173.54 455.774 152.05C475.854 128.8 488.544 102.57 492.474 76.17C495.434 56.3 489.784 36.38 476.974 21.53C464.954 7.66 448.274 0.01 429.964 0.01L429.984 0Z" fill="#1C1C36"/>
<path d="M377.184 198.15C378.744 198.94 380.404 199.49 382.094 199.81C378.244 200.5 374.234 199.95 370.684 198.15C344.974 185.14 320.654 168.18 301.434 146.67C282.984 126.04 267.104 99.23 267.744 70.86C268.494 38.15 287.794 8.68 322.574 5.9C325.334 5.68 328.074 5.65 330.774 5.79C330.204 5.82 329.644 5.86 329.074 5.9C294.294 8.68 274.994 38.15 274.244 70.86C273.604 99.23 289.484 126.04 307.934 146.67C327.154 168.18 351.474 185.14 377.184 198.15Z" fill="white"/>
<g style="mix-blend-mode:multiply" opacity="0.37">
<path d="M428.464 146.53C419.584 143.01 409.494 143.34 400.634 146.74C391.564 150.22 383.934 156.63 377.354 163.64C374.154 167.06 371.284 170.73 368.244 174.29C367.594 175.05 366.864 176 365.824 176.23C364.764 176.46 363.554 176.13 362.494 176.06C361.324 175.99 360.154 176.01 358.984 175.98C357.734 175.94 356.484 175.87 355.234 175.83C352.604 175.76 350.014 175.86 347.474 176.63C344.944 177.41 342.514 178.69 340.564 180.47C350.214 187.02 360.334 192.91 370.684 198.15C375.484 200.57 381.134 200.73 386.074 198.61C407.354 189.46 427.884 175.31 444.974 157.84C440.084 153.22 434.744 149.02 428.464 146.53Z" fill="#FF6565"/>
</g>
<path d="M388.864 83.45C388.374 83.08 388.374 82.5 388.864 82.13C391.494 80.15 393.694 77.63 396.184 75.48C397.074 74.71 398.014 73.95 399.004 73.28C397.354 62.74 392.994 55.18 387.844 55.18C381.294 55.18 375.974 67.42 375.974 82.53C375.974 97.64 381.284 109.88 387.844 109.88C393.374 109.88 398.014 101.14 399.324 89.33C395.634 87.71 392.074 85.85 388.854 83.44L388.864 83.45Z" fill="#1C1C36"/>
<path d="M329.614 83.45C329.124 83.08 329.124 82.5 329.614 82.13C332.244 80.15 334.444 77.63 336.934 75.48C337.824 74.71 338.764 73.95 339.754 73.28C338.104 62.74 333.744 55.18 328.594 55.18C322.044 55.18 316.724 67.42 316.724 82.53C316.724 97.64 322.034 109.88 328.594 109.88C334.124 109.88 338.764 101.14 340.074 89.33C336.384 87.71 332.824 85.85 329.604 83.44L329.614 83.45Z" fill="#1C1C36"/>
<path d="M349.374 41.89C348.794 40.75 347.514 40.16 346.314 39.71C336.534 36.04 325.434 35.98 315.614 39.55C305.804 43.12 297.364 50.3 292.304 59.37L307.254 69.81C319.924 68.69 332.204 63.66 341.984 55.59C345.504 52.68 348.874 49.08 349.614 44.6C349.764 43.69 349.794 42.72 349.374 41.89Z" fill="#FF6565"/>
<path d="M365.694 41.89C366.274 40.75 367.554 40.16 368.754 39.71C378.534 36.04 389.634 35.98 399.454 39.55C409.264 43.12 417.704 50.3 422.764 59.37L407.814 69.81C395.144 68.69 382.864 63.66 373.084 55.59C369.564 52.68 366.194 49.08 365.454 44.6C365.304 43.69 365.274 42.72 365.694 41.89Z" fill="#FF6565"/>
<path d="M402.564 95.28C404.024 95.61 405.164 96.08 406.074 96.61C407.654 97.54 408.214 99.54 407.434 101.2C402.324 112.03 394.754 121.9 384.684 128.52C373.814 135.67 359.704 138.74 347.104 134.97C344.644 134.31 343.614 137.84 346.024 138.6C352.914 140.59 360.224 140.71 367.164 139.36C386.804 135.72 401.874 120.42 409.974 102.88C411.094 100.46 414.454 100.05 416.064 102.18C416.214 102.38 416.284 102.51 416.284 102.51C413.114 92.46 402.564 95.28 402.564 95.28Z" fill="#1C1C36"/>
<g style="mix-blend-mode:multiply" opacity="0.27">
<path d="M365.034 16.85C363.844 24.07 365.794 31.7 369.954 39.62C373.184 25.32 387.834 17.69 387.834 17.69L387.984 17.34C380.734 21 372.134 20.82 365.034 16.85Z" fill="#FF6565"/>
</g>
<path d="M338.014 13.98C338.544 12.02 336.844 9.86 334.214 9.14C331.584 8.42 329.034 9.43 328.504 11.38C327.974 13.34 329.674 15.5 332.304 16.22C334.934 16.94 337.484 15.93 338.014 13.98Z" fill="white"/>
<path d="M347.094 17.91C347.444 16.62 346.324 15.19 344.584 14.71C342.854 14.24 341.164 14.9 340.814 16.19C340.464 17.48 341.584 18.91 343.324 19.39C345.054 19.86 346.744 19.2 347.094 17.91Z" fill="white"/>
<path d="M474.534 87.79C474.114 96.89 471.574 105.94 468.304 114.43C460.014 135.82 445.554 154.62 427.894 169.16C424.384 172.04 420.584 174.63 416.864 177.22C419.934 173.87 423.284 170.83 426.364 167.51C447.954 144.87 465.624 118.01 474.524 87.79H474.534Z" fill="#1C1C36"/>
<path d="M369.954 39.62C371.914 29.52 379.464 21.32 387.564 15.46C393.734 11.05 400.794 7.88 408.054 5.76C410.504 5.16 412.954 4.61 415.424 4.19C411.004 6.51 406.544 8.56 402.214 10.95C389.604 18 377.404 26.97 369.964 39.62H369.954Z" fill="#1C1C36"/>
<path d="M469.274 29.81C471.544 32.51 473.594 35.28 475.124 38.48C476.024 40.37 476.564 42.15 476.054 44.27C475.624 46.03 474.334 47.97 472.734 48.88C471.014 49.86 468.924 50.39 466.974 49.81C465.214 49.3 463.214 48.21 462.384 46.48C461.374 44.36 460.124 42.37 458.704 40.51C457.134 38.7 455.394 37.07 453.514 35.6C451.474 34.2 449.294 33.01 447.014 32.05C444.764 31.26 442.444 30.69 440.084 30.37C439.404 30.32 438.724 30.29 438.044 30.29C436.074 30.27 434.124 29.62 432.664 28.24C431.324 26.97 430.274 24.85 430.304 22.97C430.334 21.02 430.914 18.97 432.344 17.57C433.744 16.2 435.584 15.18 437.584 15.2C449.494 15.3 461.524 20.63 469.274 29.81Z" fill="white"/>
<path d="M465.994 64.05C466.144 69.18 469.774 73.24 474.094 73.11C478.414 72.98 481.794 68.71 481.644 63.58C481.494 58.45 477.864 54.39 473.544 54.52C469.224 54.65 465.844 58.92 465.994 64.05Z" fill="white"/>
<path d="M443.804 197.84C442.244 199.23 439.204 199.96 437.954 201.61C432.584 194.18 419.044 180.43 411.654 186.55L396.464 194.88C391.834 202.03 384.234 206.91 375.714 207.7C368.214 208.39 345.624 205.32 340.574 180.47C351.044 176.86 360.844 177.51 370.094 181.66C371.434 182.26 373.004 181.76 373.734 180.49C378.924 171.4 399.474 139.24 428.304 151.25C434.014 153.63 438.974 157.49 442.894 162.23C448.704 169.25 450.884 180.07 453.374 184.51C452.624 185.02 447.994 194.11 443.804 197.83V197.84Z" fill="#1C1C36"/>
<path d="M505.684 194.4L448.704 233.67V233.68C448.704 233.68 437.644 227.99 439.714 213.07C443.814 204.9 459.804 183.77 459.804 183.77C459.894 183.47 459.974 183.18 460.044 182.9C467.394 173.56 482.574 159.29 499.684 172.31C499.684 172.31 513.294 183.72 505.694 194.4H505.684Z" fill="#D8B4F8" stroke="#1C1C36" stroke-width="4" stroke-linecap="round" stroke-linejoin="round"/>
<path d="M488.734 172.25C489.374 174.38 486.554 177.12 482.434 178.37C478.314 179.61 474.444 178.89 473.804 176.76C473.164 174.63 475.984 171.89 480.104 170.64C484.224 169.4 488.094 170.12 488.734 172.25Z" fill="white"/>
<path d="M472.074 178.59C472.934 179.45 472.284 181.48 470.634 183.13C468.984 184.78 466.944 185.43 466.094 184.57C465.234 183.71 465.884 181.68 467.534 180.03C469.184 178.38 471.224 177.73 472.074 178.59Z" fill="white"/>
<path d="M460.034 182.9C459.964 183.18 459.884 183.47 459.794 183.77C459.794 183.77 443.804 204.9 439.704 213.06C439.704 213.06 427.174 216.03 426.914 206.43C426.814 202.58 428.934 199.04 432.184 196.97C445.034 188.78 446.254 179.62 449.024 175.74C449.574 174.98 450.244 174.33 450.994 173.82C452.694 172.66 454.824 172.2 456.864 172.76C459.614 173.5 461.844 175.99 460.034 182.89V182.9Z" fill="#D8B4F8" stroke="#1C1C36" stroke-width="4" stroke-linecap="round" stroke-linejoin="round"/>
<path d="M505.684 194.4C503.174 202.57 449.534 233.19 448.694 233.67C467.074 195.85 502.754 188.19 505.684 194.4Z" fill="#D8B4F8" stroke="#1C1C36" stroke-width="4" stroke-linecap="round" stroke-linejoin="round"/>
<g style="mix-blend-mode:multiply">
<path d="M505.684 194.4C503.174 202.57 449.534 233.19 448.694 233.67C467.074 195.85 502.754 188.19 505.684 194.4Z" fill="#D8B4F8"/>
</g>
<path d="M429.244 227.15C428.634 228.56 427.614 229.64 426.334 230.46C421.784 233.38 413.924 233.01 409.454 232.51C402.984 231.79 396.174 229.23 390.934 225.3C388.504 223.47 386.474 220.96 385.824 217.99C385.804 217.88 385.784 217.78 385.764 217.68C384.694 211.94 389.314 208.65 394.614 208.27L396.574 208.13L399.434 207.92C399.974 212.63 403.364 216.73 407.584 218.9C411.804 221.07 416.754 221.51 421.474 220.99C422.984 220.83 424.494 220.57 426.004 220.37C427.364 220.2 428.724 220.07 430.094 220.1C430.804 220.12 429.504 226.56 429.244 227.15Z" fill="#D8B4F8" stroke="#1C1C36" stroke-width="4" stroke-linecap="round" stroke-linejoin="round"/>
<path d="M428.714 253.32C426.584 253.96 424.154 252.19 423.304 249.37C422.454 246.55 423.484 243.73 425.624 243.08C427.754 242.44 430.184 244.21 431.034 247.03C431.884 249.86 430.854 252.67 428.714 253.32Z" fill="white"/>
<path d="M422.304 242.63C421.234 242.95 420.024 242.07 419.604 240.65C419.174 239.24 419.694 237.83 420.764 237.51C421.834 237.19 423.044 238.07 423.464 239.49C423.894 240.9 423.374 242.31 422.304 242.63Z" fill="white"/>
<path d="M395.504 215.68C394.674 215.93 393.734 215.24 393.404 214.14C393.074 213.04 393.474 211.95 394.304 211.69C395.134 211.44 396.074 212.13 396.404 213.23C396.734 214.33 396.334 215.42 395.504 215.67V215.68Z" fill="white"/>
<path d="M400.324 220.43C399.824 221.05 398.394 220.73 397.134 219.71C395.874 218.69 395.244 217.37 395.744 216.75C396.244 216.13 397.674 216.45 398.934 217.47C400.194 218.49 400.824 219.81 400.324 220.43Z" fill="white"/>
<path d="M320.134 164.87L297.414 208.89L282.414 200.52L311.234 141.54C313.024 137.87 318.284 137.82 320.144 141.46C323.924 148.82 323.914 157.52 320.124 164.87H320.134Z" fill="#1C1C36"/>
<path d="M313.904 133.97C315.824 130.68 319.384 131.37 322.284 132.29C329.304 135 330.814 143.8 329.914 150.33C329.474 153.3 328.564 156.34 326.704 158.73C327.354 155.84 327.424 153.01 327.284 150.22C327.024 144.2 324.664 136.72 318.074 135.78C316.864 135.63 315.674 135.36 313.914 133.98L313.904 133.97Z" fill="#1C1C36"/>
<path d="M278.254 189.35C275.454 193.54 276.454 205.34 285.344 211.19C294.234 217.04 307.644 214.74 310.454 210.55C313.264 206.36 308.554 197.88 299.664 192.02C290.774 186.17 281.064 185.16 278.254 189.35Z" fill="white" stroke="#1C1C36" stroke-width="4" stroke-linecap="round" stroke-linejoin="round"/>
<g style="mix-blend-mode:multiply" opacity="0.43">
<path d="M278.324 195.72C276.554 198.36 278.314 206.55 285.554 211.32C292.794 216.09 302.764 215.65 304.534 213.01C306.304 210.37 302.024 204.14 294.784 199.37C287.544 194.6 280.094 193.08 278.324 195.72Z" fill="#D8B4F8"/>
</g>
<path d="M241.684 222.57C242.324 224.2 243.654 225.21 245.244 225.84C245.824 226.06 247.024 226.36 247.024 226.36C247.024 226.36 246.084 228.11 245.754 229.06C245.564 229.62 245.444 230.17 245.404 230.72V230.74C245.314 231.58 245.404 232.41 245.644 233.18C246.134 234.76 247.284 236.11 249.054 236.95C253.904 239.27 258.584 235.1 261.924 232.04C261.914 232.09 261.894 232.13 261.884 232.17C261.094 234.81 259.954 237.63 260.774 240.18C261.014 240.93 261.424 241.66 262.054 242.35C264.004 244.48 266.974 244.74 269.644 244.07C272.294 243.4 274.244 241 275.884 238.98C277.964 236.42 282.124 231.41 285.644 227.14C286.194 226.48 286.714 225.84 287.224 225.22C288.024 224.32 288.804 223.42 289.614 222.54C296.164 237.81 300.814 239.88 305.714 234.07C310.624 228.25 309.664 219.44 303.584 214.39C300.624 211.94 297.254 209.92 294.014 209.16C291.014 202.8 282.284 197.46 273.544 198.77C263.304 200.31 258.074 202.35 251.894 206.67C248.994 208.71 246.304 211.05 244.174 213.86C243.294 215.01 242.384 216.48 241.844 218.02C241.294 219.54 241.114 221.11 241.674 222.55L241.684 222.57Z" fill="white" stroke="#1C1C36" stroke-width="4" stroke-linecap="round" stroke-linejoin="round"/>
<path d="M278.534 209.21C276.054 211.9 274.974 214.94 276.134 216.01C277.294 217.08 280.244 215.77 282.734 213.09C285.214 210.4 286.294 207.36 285.134 206.29C283.974 205.22 281.024 206.53 278.534 209.21Z" fill="#1C1C36"/>
<path d="M273.244 204.08C270.154 206.03 268.324 208.7 269.164 210.03C270.004 211.36 273.194 210.86 276.294 208.91C279.394 206.96 281.214 204.29 280.374 202.96C279.534 201.63 276.344 202.13 273.244 204.08Z" fill="#1C1C36"/>
<g style="mix-blend-mode:multiply" opacity="0.43">
<path d="M245.644 233.18C246.134 234.76 247.284 236.11 249.054 236.95C253.904 239.27 258.584 235.1 261.924 232.04C261.914 232.09 261.894 232.13 261.884 232.17C264.754 228.45 267.744 224.5 270.834 220.07C269.844 219.84 259.654 228.79 257.144 230.64C254.634 232.47 248.304 234.08 247.054 229.11C247.054 229.11 246.274 232.98 245.794 233.12C245.754 233.13 245.694 233.15 245.644 233.18Z" fill="#D8B4F8"/>
</g>
<g style="mix-blend-mode:multiply" opacity="0.43">
<path d="M241.684 222.57C242.324 224.2 243.654 225.21 245.244 225.84C245.824 226.06 247.024 226.36 247.024 226.36C247.024 226.36 246.084 228.11 245.754 229.06C245.564 229.62 245.444 230.17 245.404 230.72L245.744 229.85C250.864 223.32 251.004 219.16 260.584 212.36C259.624 212.11 251.854 217.2 249.354 219.04C247.044 220.73 243.394 221.8 241.854 218.05C241.304 219.56 241.124 221.13 241.684 222.57Z" fill="#D8B4F8"/>
</g>
<g style="mix-blend-mode:multiply" opacity="0.43">
<path d="M260.784 240.19C261.024 240.94 261.434 241.67 262.064 242.36C264.014 244.49 266.984 244.75 269.654 244.08C272.304 243.41 274.254 241.01 275.894 238.99C277.974 236.43 282.134 231.42 285.654 227.15C286.214 225.86 286.754 224.57 287.274 223.26C287.374 223.01 287.474 222.69 287.304 222.48C287.114 222.23 286.724 222.28 286.424 222.38C284.864 222.93 283.634 224.16 282.544 225.41C279.874 228.48 277.604 231.91 274.684 234.73C271.744 237.55 267.904 239.77 263.834 239.56C263.114 239.53 262.374 239.42 261.694 239.64C261.354 239.76 261.044 239.94 260.794 240.18L260.784 240.19Z" fill="#D8B4F8"/>
</g>
<path d="M273.234 217.69C268.554 222.99 265.004 229.25 262.424 235.77L258.814 234.04C262.704 227.85 267.474 222.16 273.224 217.69H273.234Z" fill="#1C1C36"/>
<path d="M260.584 212.36C255.124 217.06 250.114 223.08 247.584 229.84L243.904 228.27C245.854 224.7 248.524 221.85 251.434 219.16C254.284 216.63 257.224 214.16 260.584 212.36Z" fill="#1C1C36"/>
</svg>
